# xmcd
#
# Track frame offsets:
# 172
# 15918
# 40320
# 58972
# 77632
# 95178
# 123637
# 140550
# 172355
# 191264
#
# Disc length: 2959 seconds
#
#
# Revision: 0
# Processed by: cddbd v1.5.1PL2 Copyright (c) Steve Scherf et al.
# Submitted via: FreeRIP 2.931 
#
DISCID=8e0b8d0a
DTITLE=Leo Kysela - oots
DYEAR=1996
DGENRE=Soul
TTITLE0=OOTS
TTITLE1=Love would set me free
TTITLE2=Keep on movin'
TTITLE3=Down Town
TTITLE4=Life's so blue without
TTITLE5=New Orleans waltz
TTITLE6=Little sister
TTITLE7=All along the watchtower
TTITLE8=Joey
TTITLE9=Miss you
EXTD=
EXTT0=
EXTT1=
EXTT2=
EXTT3=
EXTT4=
EXTT5=
EXTT6=
EXTT7=
EXTT8=
EXTT9=
PLAYORDER=
